<svg width="14" height="14" viewBox="0 0 14 14" fill="none" xmlns="http://www.w3.org/2000/svg">
<path d="M6.90008 1.0278C7.1302 1.0278 7.31674 1.21435 7.31674 1.44447V2.00002C7.31674 2.23014 7.1302 2.41669 6.90008 2.41669C6.66996 2.41669 6.48341 2.23014 6.48341 2.00002V1.44447C6.48341 1.21435 6.66996 1.0278 6.90008 1.0278Z" fill="#E9EAF0"/>
<path fill-rule="evenodd" clip-rule="evenodd" d="M3.70563 7.00002C3.70563 5.23578 5.13584 3.80558 6.90008 3.80558C8.66432 3.80558 10.0945 5.23578 10.0945 7.00002C10.0945 8.76427 8.66432 10.1945 6.90008 10.1945C5.13584 10.1945 3.70563 8.76427 3.70563 7.00002ZM6.90008 4.63891C5.59607 4.63891 4.53897 5.69602 4.53897 7.00002C4.53897 8.30403 5.59607 9.36113 6.90008 9.36113C8.20408 9.36113 9.26119 8.30403 9.26119 7.00002C9.26119 5.69602 8.20408 4.63891 6.90008 4.63891Z" fill="#E9EAF0"/>
<path d="M3.26634 2.77704C3.10362 2.61432 2.83981 2.61432 2.67709 2.77704C2.51437 2.93976 2.51437 3.20357 2.67709 3.36629L3.06992 3.75913C3.23264 3.92185 3.49646 3.92185 3.65918 3.75913C3.8219 3.59641 3.8219 3.33259 3.65918 3.16987L3.26634 2.77704Z" fill="#E9EAF0"/>
<path d="M12.8723 7.00002C12.8723 7.23014 12.6858 7.41669 12.4556 7.41669H11.9001C11.67 7.41669 11.4834 7.23014 11.4834 7.00002C11.4834 6.7699 11.67 6.58336 11.9001 6.58336H12.4556C12.6858 6.58336 12.8723 6.76991 12.8723 7.00002Z" fill="#E9EAF0"/>
<path d="M11.1231 3.36629C11.2858 3.20357 11.2858 2.93975 11.1231 2.77703C10.9603 2.61431 10.6965 2.61431 10.5338 2.77703L10.141 3.16987C9.97825 3.33259 9.97825 3.59641 10.141 3.75913C10.3037 3.92184 10.5675 3.92184 10.7302 3.75913L11.1231 3.36629Z" fill="#E9EAF0"/>
<path d="M6.90008 11.5834C7.1302 11.5834 7.31674 11.7699 7.31674 12V12.5556C7.31674 12.7857 7.1302 12.9722 6.90008 12.9722C6.66996 12.9722 6.48341 12.7857 6.48341 12.5556V12C6.48341 11.7699 6.66996 11.5834 6.90008 11.5834Z" fill="#E9EAF0"/>
<path d="M10.7303 10.2409C10.5675 10.0782 10.3037 10.0782 10.141 10.2409C9.97829 10.4036 9.97829 10.6675 10.141 10.8302L10.5338 11.223C10.6966 11.3857 10.9604 11.3857 11.1231 11.223C11.2858 11.0603 11.2858 10.7965 11.1231 10.6338L10.7303 10.2409Z" fill="#E9EAF0"/>
<path d="M2.31675 7.00002C2.31675 7.23014 2.1302 7.41669 1.90008 7.41669H1.34452C1.1144 7.41669 0.927856 7.23014 0.927856 7.00002C0.927856 6.7699 1.1144 6.58336 1.34452 6.58336H1.90008C2.1302 6.58336 2.31675 6.76991 2.31675 7.00002Z" fill="#E9EAF0"/>
<path d="M3.65914 10.8302C3.82186 10.6675 3.82186 10.4036 3.65914 10.2409C3.49642 10.0782 3.23261 10.0782 3.06989 10.2409L2.67705 10.6338C2.51433 10.7965 2.51433 11.0603 2.67705 11.223C2.83977 11.3857 3.10359 11.3857 3.26631 11.223L3.65914 10.8302Z" fill="#E9EAF0"/>
</svg>
