<svg width="25" height="25" viewBox="0 0 25 25" fill="none" xmlns="http://www.w3.org/2000/svg">
<g id="i_more.cc8d8ec7.svg">
<path id="Vector" d="M12.4999 13.6C13.0522 13.6 13.4999 13.1523 13.4999 12.6C13.4999 12.0477 13.0522 11.6 12.4999 11.6C11.9476 11.6 11.4999 12.0477 11.4999 12.6C11.4999 13.1523 11.9476 13.6 12.4999 13.6Z" stroke="#404B51" stroke-width="2" stroke-linecap="round" stroke-linejoin="round"/>
<path id="Vector_2" d="M19.4999 13.6C20.0522 13.6 20.4999 13.1523 20.4999 12.6C20.4999 12.0477 20.0522 11.6 19.4999 11.6C18.9476 11.6 18.4999 12.0477 18.4999 12.6C18.4999 13.1523 18.9476 13.6 19.4999 13.6Z" stroke="#404B51" stroke-width="2" stroke-linecap="round" stroke-linejoin="round"/>
<path id="Vector_3" d="M5.49988 13.6C6.05216 13.6 6.49988 13.1523 6.49988 12.6C6.49988 12.0477 6.05216 11.6 5.49988 11.6C4.9476 11.6 4.49988 12.0477 4.49988 12.6C4.49988 13.1523 4.9476 13.6 5.49988 13.6Z" stroke="#404B51" stroke-width="2" stroke-linecap="round" stroke-linejoin="round"/>
</g>
</svg>
