<svg width="23" height="20" viewBox="0 0 23 20" fill="none" xmlns="http://www.w3.org/2000/svg">
<g id="Frame">
<path id="Vector" d="M22.8573 1.23181C22.8573 1.08787 22.7146 0.943927 22.5719 0.799988C22.2864 0.799988 22.001 0.799988 21.7156 0.799988C21.7156 0.799988 1.73548 7.99696 0.593764 8.8606C0.16562 9.14847 0.16562 9.29241 0.0229048 9.29241C-0.11981 9.86817 0.45105 10.156 0.45105 10.156L5.58879 11.8833C5.7315 11.8833 5.7315 11.8833 5.87421 11.8833C7.01593 11.1636 17.7196 4.39847 18.2904 4.1106C18.4331 4.1106 18.4331 4.1106 18.4331 4.1106C18.1477 4.97423 9.01394 13.1788 9.01394 13.3227C9.01394 13.3227 8.87123 13.4667 9.01394 13.4667L8.5858 18.5045C8.5858 18.5045 8.44308 20.0879 10.0129 18.5045C11.1547 17.353 12.1537 16.4894 12.7245 16.0576C14.4371 17.353 16.4351 18.6485 17.2914 19.3682C17.5768 19.6561 18.005 19.8 18.2904 19.8C18.7186 19.8 19.1467 19.3682 19.2894 18.9364C19.2894 18.9364 23 4.1106 23 2.09544C23 1.95151 23 1.80757 23 1.66362C22.8573 1.51968 22.8573 1.37575 22.8573 1.23181Z" fill="#ABB7BD"/>
</g>
</svg>
