<svg width="28" height="17" viewBox="0 0 28 17" fill="none" xmlns="http://www.w3.org/2000/svg">
<path d="M15.2553 7.98012C15.2553 12.2216 11.8402 15.66 7.62778 15.66C3.41532 15.66 0 12.2208 0 7.98012C0 3.73941 3.41506 0.299988 7.62778 0.299988C11.8405 0.299988 15.2553 3.73863 15.2553 7.98012Z" fill="#ABB7BD"/>
<path d="M23.6227 7.98007C23.6227 11.9725 21.9151 15.2103 19.8088 15.2103C17.7024 15.2103 15.9949 11.9725 15.9949 7.98007C15.9949 3.98762 17.7021 0.749817 19.8085 0.749817C21.9149 0.749817 23.6227 3.98659 23.6227 7.98007Z" fill="#ABB7BD"/>
<path d="M27.0457 7.98015C27.0457 11.5564 26.4453 14.4573 25.7044 14.4573C24.9635 14.4573 24.3633 11.5572 24.3633 7.98015C24.3633 4.40313 24.9637 1.50299 25.7044 1.50299C26.445 1.50299 27.0457 4.40287 27.0457 7.98015Z" fill="#ABB7BD"/>
</svg>
