<svg width="23" height="20" viewBox="0 0 23 20" fill="none" xmlns="http://www.w3.org/2000/svg">
<g id="Frame">
<path id="Vector" d="M23 2.9923C22.1375 3.43076 21.275 3.57691 20.2688 3.72307C21.275 3.13845 21.9937 2.26153 22.2812 1.0923C21.4188 1.67691 20.4125 1.96922 19.2625 2.26153C18.4 1.3846 17.1063 0.799988 15.8125 0.799988C13.3687 0.799988 11.2125 2.9923 11.2125 5.62307C11.2125 6.06153 11.2125 6.35384 11.3562 6.64614C7.475 6.49999 3.88125 4.59999 1.58125 1.67691C1.15 2.40768 1.00625 3.13845 1.00625 4.16153C1.00625 5.76922 1.86875 7.23076 3.1625 8.10768C2.44375 8.10768 1.725 7.81537 1.00625 7.52307C1.00625 9.86153 2.5875 11.7615 4.74375 12.2C4.3125 12.3462 3.88125 12.3462 3.45 12.3462C3.1625 12.3462 2.875 12.3462 2.5875 12.2C3.1625 14.1 4.8875 15.5615 7.04375 15.5615C5.4625 16.8769 3.45 17.6077 1.15 17.6077C0.71875 17.6077 0.43125 17.6077 0 17.6077C2.15625 18.9231 4.6 19.8 7.1875 19.8C15.8125 19.8 20.5562 12.4923 20.5562 6.20768C20.5562 6.06153 20.5562 5.76922 20.5562 5.62307C21.5625 4.8923 22.425 4.01537 23 2.9923Z" fill="#ABB7BD"/>
</g>
</svg>
